<?xml version="1.0" encoding="UTF-8" standalone="no"?>
<!DOCTYPE svg PUBLIC "-//W3C//DTD SVG 1.1//EN" "http://www.w3.org/Graphics/SVG/1.1/DTD/svg11.dtd">
<svg width="100%" height="100%" viewBox="0 0 72 72" version="1.1" xmlns="http://www.w3.org/2000/svg" xmlns:xlink="http://www.w3.org/1999/xlink" xml:space="preserve" xmlns:serif="http://www.serif.com/" style="fill-rule:evenodd;clip-rule:evenodd;stroke-linecap:round;stroke-linejoin:round;">
    <path d="M4.545,43C4.187,41.054 4,39.049 4,37C4,18.787 18.787,4 37,4C55.213,4 70,18.787 70,37C70,39.049 69.813,41.054 69.455,43L60.243,43C60.737,41.082 61,39.071 61,37C61,23.754 50.246,13 37,13C23.754,13 13,23.754 13,37C13,39.071 13.263,41.082 13.757,43L4.545,43Z" style="fill:rgb(255,0,0);"/>
    <g id="color">
        <path d="M53.745,45.422C51.81,43.464 49.087,42.471 45.651,42.471L43.236,42.471C43.167,42.471 43.108,42.42 43.098,42.352L42.944,41.432C48.4,38.743 52.221,32.673 52.221,25.62C52.221,16.083 45.245,8.325 36.67,8.325C28.095,8.325 21.119,16.083 21.119,25.62C21.119,32.671 24.938,38.74 30.391,41.43L30.237,42.353C30.227,42.421 30.167,42.471 30.099,42.471L27.684,42.471C24.248,42.471 21.524,43.464 19.59,45.422C16.746,48.3 16.368,52.563 16.396,54.835C16.396,54.835 16.395,59.917 16.395,59.917C16.395,60.465 16.847,60.916 17.395,60.916C17.395,60.916 17.395,60.916 17.396,60.916L55.939,60.916C55.94,60.916 55.94,60.916 55.94,60.916C56.488,60.916 56.939,60.465 56.939,59.917C56.939,59.917 56.939,54.847 56.939,54.847C56.967,52.562 56.589,48.3 53.745,45.422Z" style="fill:rgb(63,63,63);fill-rule:nonzero;"/>
        <path d="M36.667,19.097C44.327,19.097 50.772,20.524 52.048,28.642C52.211,27.643 52.294,26.632 52.296,25.62C52.296,16.083 45.321,8.325 36.745,8.325C28.17,8.325 21.195,16.083 21.195,25.62C21.197,26.632 21.28,27.643 21.443,28.642C22.719,20.524 29.008,19.097 36.667,19.097Z" style="fill-rule:nonzero;"/>
        <path d="M53.734,45.745C53.711,45.62 53.674,45.499 53.624,45.383C53.589,45.321 53.547,45.264 53.5,45.212C53.476,45.175 53.451,45.14 53.423,45.107C53.401,45.087 53.376,45.07 53.355,45.05L53.343,45.041C51.195,43.25 48.45,42.332 45.657,42.471L43.33,42.471C43.253,42.477 43.176,42.492 43.103,42.517C43.075,42.524 43.047,42.524 43.02,42.533C42.918,42.568 42.824,42.619 42.739,42.685C42.723,42.697 42.705,42.705 42.69,42.718C42.619,42.781 42.557,42.854 42.508,42.934C42.434,43.024 42.388,43.133 42.375,43.248C42.359,43.289 42.345,43.332 42.335,43.375C42.33,43.418 41.839,47.55 36.721,52.768C31.603,47.54 31.105,43.432 31.101,43.381C31.09,43.332 31.076,43.284 31.058,43.238C31.045,43.17 31.024,43.103 30.998,43.04C30.971,42.991 30.94,42.945 30.905,42.902C30.865,42.841 30.818,42.783 30.765,42.732C30.725,42.701 30.683,42.672 30.639,42.647C30.531,42.561 30.398,42.511 30.261,42.502C30.209,42.487 30.157,42.477 30.105,42.471L27.69,42.471C24.898,42.332 22.154,43.247 20.003,45.033C19.97,45.071 19.939,45.112 19.912,45.155C19.87,45.202 19.832,45.253 19.799,45.306C19.748,45.423 19.71,45.545 19.685,45.669C19.68,45.742 19.683,45.814 19.693,45.885C19.692,45.93 19.694,45.974 19.699,46.019C21.299,51.965 24.933,57.168 29.965,60.718C30.137,60.847 30.346,60.916 30.561,60.916L44.279,60.916C44.726,60.916 45.121,60.617 45.242,60.188C45.314,59.919 45.27,59.632 45.12,59.398C49.301,55.964 52.308,51.309 53.719,46.086C53.724,46.04 53.726,45.994 53.725,45.949C53.735,45.881 53.738,45.813 53.734,45.744Z" style="fill-rule:nonzero;"/>
        <path d="M17.748,44.983C17.928,45.285 18.254,45.47 18.605,45.47C18.676,45.47 18.746,45.462 18.815,45.447C19.233,45.358 19.549,45.01 19.599,44.586L20.366,38.02C20.427,37.496 20.064,37.009 19.545,36.919L14.296,36.004C14.277,36.001 14.26,36.005 14.242,36.003C14.272,35.933 14.295,35.86 14.308,35.786L15.729,25.751C15.736,25.704 15.739,25.657 15.739,25.61C15.739,25.062 15.288,24.61 14.739,24.61C14.552,24.61 14.368,24.663 14.209,24.762L8.8,28.137C8.341,28.424 8.193,29.034 8.472,29.499L17.748,44.983Z" style="fill:rgb(63,63,63);fill-rule:nonzero;"/>
        <path d="M26.736,43.013L15.589,25.082C15.406,24.79 15.085,24.611 14.739,24.611C14.235,24.611 13.806,24.992 13.746,25.492L12.514,35.843C12.452,36.366 12.814,36.853 13.333,36.945L19.381,38.01L18.462,45.734C18.4,46.258 18.762,46.745 19.281,46.837C21.238,44.725 23.879,43.37 26.736,43.013Z" style="fill:rgb(208,207,206);fill-rule:nonzero;"/>
    </g>
    <g id="skin">
        <path d="M50.286,22.777C47.934,19.928 43.349,18.483 36.658,18.483C30.277,18.483 25.797,19.893 23.343,22.675C22.049,24.085 21.375,25.957 21.473,27.868C21.662,29.582 22.09,31.262 22.744,32.858L22.808,32.962L22.615,33.124L22.847,33.028C22.882,33.069 22.92,33.107 22.962,33.14L23.014,33.188C23.063,33.219 23.114,33.244 23.168,33.264L23.104,33.509L23.228,33.292C23.285,33.308 23.343,33.318 23.402,33.321L23.446,33.321C23.522,33.32 23.598,33.308 23.671,33.284C23.75,33.259 31.793,30.661 36.658,30.661C42.251,30.661 49.744,32.88 49.819,32.902C50.201,33.015 50.61,32.806 50.741,32.43L50.793,32.311C51.323,30.88 51.675,29.388 51.843,27.871L51.843,27.855C52.048,26.021 51.484,24.181 50.286,22.777Z" style="fill:rgb(252,234,43);fill-rule:nonzero;"/>
    </g>
    <g id="line">
        <path d="M19.875,46.59L9.329,28.985L14.739,25.611L25.91,43.573" style="fill:none;fill-rule:nonzero;stroke:black;stroke-width:2px;"/>
        <path d="M14.206,30.088L13.508,35.961L22.129,37.493" style="fill:none;fill-rule:nonzero;stroke:black;stroke-width:2px;"/>
        <path d="M20.07,40.625L19.447,45.858" style="fill:none;fill-rule:nonzero;stroke:black;stroke-width:2px;"/>
        <path d="M42.745,24.944C42.745,26.042 41.843,26.944 40.745,26.944C39.648,26.944 38.745,26.042 38.745,24.944C38.745,23.847 39.648,22.944 40.745,22.944C41.843,22.945 42.745,23.847 42.745,24.944" style="fill-rule:nonzero;"/>
        <path d="M34.745,24.944C34.745,26.042 33.843,26.944 32.745,26.944C31.648,26.944 30.745,26.042 30.745,24.944C30.745,23.847 31.648,22.944 32.745,22.944C33.843,22.945 34.745,23.847 34.745,24.944" style="fill-rule:nonzero;"/>
        <path d="M17.393,59.916L17.393,54.835C17.349,51.2 18.353,43.47 27.681,43.47L30.096,43.47C30.651,43.47 31.13,43.064 31.221,42.517L31.498,40.856" style="fill:none;fill-rule:nonzero;stroke:black;stroke-width:2px;"/>
        <path d="M55.937,59.916L55.937,54.835C55.981,51.2 54.977,43.47 45.648,43.47L43.234,43.47C42.678,43.47 42.2,43.064 42.108,42.517L41.832,40.856" style="fill:none;fill-rule:nonzero;stroke:black;stroke-width:2px;"/>
        <ellipse cx="36.667" cy="25.62" rx="14.551" ry="16.295" style="fill:none;stroke:black;stroke-width:2px;"/>
        <path d="M23.448,32.435C23.448,32.435 31.644,29.775 36.667,29.775C42.42,29.775 50.042,32.048 50.042,32.048" style="fill:none;fill-rule:nonzero;stroke:black;stroke-width:2px;"/>
        <path d="M22.229,27.652C22.229,27.652 21.159,19.097 36.668,19.097C52.755,19.097 51.104,27.652 51.104,27.652" style="fill:none;fill-rule:nonzero;stroke:black;stroke-width:2px;"/>
        <path d="M30.096,43.47C30.096,43.47 30.839,51.693 44.27,59.916" style="fill:none;fill-rule:nonzero;stroke:black;stroke-width:2px;"/>
        <path d="M20.662,45.781C21.442,48.957 23.753,54.854 30.552,59.916" style="fill:none;fill-rule:nonzero;stroke:black;stroke-width:2px;"/>
        <path d="M43.321,43.47C43.321,43.47 42.888,48.262 36.709,54.187" style="fill:none;fill-rule:nonzero;stroke:black;stroke-width:2px;"/>
        <path d="M52.739,45.843C51.266,51.279 48.01,56.066 43.496,59.433" style="fill:none;fill-rule:nonzero;stroke:black;stroke-width:2px;"/>
    </g>
    <path d="M69.455,43C66.63,58.353 53.164,70 37,70C20.836,70 7.37,58.353 4.545,43L13.757,43C16.424,53.347 25.826,61 37,61C48.174,61 57.576,53.347 60.243,43L69.455,43Z" style="fill:rgb(255,0,0);"/>
    <path d="M56.829,23.535L22.535,57.829C21.657,58.707 20.231,58.707 19.353,57.829L16.171,54.647C15.293,53.769 15.293,52.343 16.171,51.465L50.465,17.171C51.343,16.293 52.769,16.293 53.647,17.171L56.829,20.353C57.707,21.231 57.707,22.657 56.829,23.535Z" style="fill:rgb(255,0,0);"/>
</svg>
